<svg width="33" height="32" viewBox="0 0 33 32" fill="none" xmlns="http://www.w3.org/2000/svg">
<path d="M0.400024 31.6V26.128L1.55202 25.744C5.20002 23.888 7.28003 20.816 7.79203 16.528L7.88803 14.992H0.880024V0.880005H14.8V13.648C14.8 17.04 14.096 20.016 12.688 22.576C9.80802 27.696 5.71202 30.704 0.400024 31.6ZM18.256 31.6V26.128L19.408 25.744C23.056 23.888 25.136 20.816 25.648 16.528L25.744 14.992H18.736V0.880005H32.656V13.648C32.656 17.04 31.952 20.016 30.544 22.576C27.664 27.696 23.568 30.704 18.256 31.6Z" fill="#B0855B"/>
</svg>
